<?xml version="1.0" encoding="utf-8"?>
<!-- Generator: Adobe Illustrator 25.2.1, SVG Export Plug-In . SVG Version: 6.00 Build 0)  -->
<svg version="1.1" id="Camada_1" xmlns="http://www.w3.org/2000/svg" xmlns:xlink="http://www.w3.org/1999/xlink" x="0px" y="0px"
	 viewBox="0 0 92.4 114.1" style="enable-background:new 0 0 92.4 114.1;" xml:space="preserve">
<style type="text/css">
	.st0{fill:#231F20;}
	.st1{fill:none;}
</style>
<path class="st0" d="M92.2,26.7c0-0.2,0-0.3-0.1-0.4l-0.1-0.2c-0.1-0.2-0.2-0.4-0.3-0.5L74,6.5l0,0c-0.2-0.2-0.2-0.3-0.4-0.4
	c-0.1,0-0.1,0-0.2-0.1C73.3,6,73.2,6,73,6H17.3c-0.8,0-1.6,0.8-1.6,1.7l0,0V106c0,0.9,0.7,1.6,1.5,1.6l0,0h73.4
	c0.8,0,1.6-0.7,1.6-1.6c0,0,0,0,0-0.1L92.2,26.7C92.3,26.8,92.2,26.7,92.2,26.7z M74.4,11.8l12.5,13.4H74.4V11.8z M89.2,104.4H18.9
	v-95h52.5v17.5c0,0.9,0.7,1.7,1.6,1.7h16.2V104.4z"/>
<path class="st0" d="M45.7,81.8l-4.4,4.7l-5.6,6.1c-0.4,0.4-1.1,0.4-1.5,0l0,0l-3.8-4.1c-0.4-0.4-0.4-1.2,0-1.6l0,0
	c0.4-0.4,1.1-0.4,1.5,0l3,3.2l5.5-5.9l2.9-3.1l0.9-1c0.4-0.4,1.1-0.4,1.5,0l0,0C46.1,80.7,46.1,81.4,45.7,81.8z"/>
<path class="st0" d="M44.6,85.1c0.3,1.2,0.6,2.3,0.6,3.5c0,6-4.5,10.8-10,10.8s-10-4.8-10-10.8s4.5-10.8,10-10.8l0,0
	c2.3,0,4.6,0.9,6.4,2.5l-1.3,1.8c-3.4-3-8.4-2.5-11.1,1.2c-2.7,3.7-2.3,9,1.1,11.9c3.4,3,8.4,2.5,11.1-1.2c1.2-1.5,1.8-3.5,1.8-5.4
	c0-0.6-0.1-1.3-0.2-2L44.6,85.1z"/>
<path class="st0" d="M32.3,65.7c-1.2-1.3-2.9-2-4.6-2l0,0c-1.7,0-3.4,0.7-4.6,2l-3.6,3.7L19,68.7c-2.4-2.9-5.5-7.3-6.6-10.1
	c-0.9-2-2.7-3.5-4.9-4c-3.4-0.7-6.8,1.8-7.5,5.5C0,60.9,0,61.6,0.1,62.4c0.4,2.2,1.8,4.1,3.8,5c2.7,1.2,7.3,4.5,10.4,7.3l-3.6,3.8
	c-2.6,2.6-2.6,6.8,0,9.5l0,0l2.5,2.6l21.7-22.2L32.3,65.7z"/>
<path class="st0" d="M27,20.8h33.9c0.8,0,1.6,0.7,1.6,1.7l0,0c0,0.9-0.7,1.7-1.6,1.7H27c-0.8,0-1.5-0.7-1.5-1.7l0,0
	C25.5,21.5,26.2,20.8,27,20.8z"/>
<path class="st0" d="M48.9,64.8h33.9c0.8,0,1.6,0.7,1.6,1.7l0,0c0,0.9-0.7,1.7-1.6,1.7H48.9c-0.8,0-1.5-0.7-1.5-1.7l0,0
	C47.3,65.5,48.1,64.8,48.9,64.8z"/>
<path class="st0" d="M56.6,76.2h26.6c0.7,0,1.3,0.6,1.3,1.4v0.4c0,0.8-0.6,1.4-1.3,1.4H56.6c-0.7,0-1.4-0.6-1.4-1.4v-0.4
	C55.3,76.8,55.9,76.2,56.6,76.2z"/>
<path class="st0" d="M56.9,85.2h26.6c0.7,0,1.3,0.6,1.3,1.4V87c0,0.8-0.6,1.4-1.3,1.4H56.9c-0.7,0-1.4-0.6-1.4-1.4v-0.4
	C55.5,85.9,56.1,85.2,56.9,85.2z"/>
<path class="st0" d="M27,33.9h55.9c0.8,0,1.6,0.7,1.6,1.7l0,0c0,0.9-0.7,1.7-1.6,1.7H27c-0.8,0-1.5-0.7-1.5-1.7l0,0
	C25.5,34.7,26.2,33.9,27,33.9z"/>
<path class="st0" d="M26.6,43.1h25.3c0.6,0,1.1,0.5,1.1,1.2v1.1c0,0.6-0.5,1.2-1.1,1.2H26.6c-0.6,0-1.1-0.5-1.1-1.2v-1.1
	C25.5,43.6,26,43.1,26.6,43.1z"/>
<path class="st0" d="M57.9,43.1h25.4c0.6,0,1.1,0.5,1.1,1.2v1.1c0,0.6-0.5,1.2-1.1,1.2H57.9c-0.6,0-1.1-0.5-1.1-1.2v-1.1
	C56.9,43.6,57.4,43.1,57.9,43.1z"/>
<path class="st0" d="M27,53.4h55.9c0.8,0,1.6,0.7,1.6,1.7l0,0c0,0.9-0.7,1.7-1.6,1.7H27c-0.8,0-1.5-0.7-1.5-1.7l0,0
	C25.5,54.2,26.2,53.4,27,53.4z"/>
<line class="st1" x1="44.6" y1="85.1" x2="42.8" y2="86.7"/>
</svg>
